<svg xmlns="http://www.w3.org/2000/svg" xmlns:xlink="http://www.w3.org/1999/xlink" width="470" height="407.995" viewBox="0 0 470 407.995">
  <defs>
    <linearGradient id="linear-gradient" y1="0.5" x2="1" y2="0.5" gradientUnits="objectBoundingBox">
      <stop offset="0" stop-color="gray" stop-opacity="0.251"/>
      <stop offset="0.54" stop-color="gray" stop-opacity="0.122"/>
      <stop offset="1" stop-color="gray" stop-opacity="0.102"/>
    </linearGradient>
    <linearGradient id="linear-gradient-2" x1="12.106" y1="0.5" x2="13.106" y2="0.5" xlink:href="#linear-gradient"/>
  </defs>
  <g id="Group_9413" data-name="Group 9413" transform="translate(0 6)">
    <path id="Path_16473" data-name="Path 16473" d="M212.4,0c73.783,0,141.82,12.078,194.919,59.467s17.477,91.25,17.477,130.09c0,104.689,27.668,218.438-89.635,218.438-25.691,0-59.157-22.1-130.6-34.645S103.915,400.9,49.369,357.823,0,245.462,0,189.557c0-63.023-50.682-146.082,78.807-141.9S165.709,0,212.4,0Z" transform="translate(11.372 -6)" fill="#303f9f" opacity="0.1"/>
    <ellipse id="Ellipse_353" data-name="Ellipse 353" cx="78.314" cy="12.139" rx="78.314" ry="12.139" transform="translate(0 274.382)" fill="#303f9f" opacity="0.1"/>
    <ellipse id="Ellipse_354" data-name="Ellipse 354" cx="30.461" cy="6.292" rx="30.461" ry="6.292" transform="translate(85.495 343.905)" fill="#303f9f" opacity="0.1"/>
    <ellipse id="Ellipse_355" data-name="Ellipse 355" cx="30.461" cy="6.292" rx="30.461" ry="6.292" transform="translate(293.633 319.695)" fill="#303f9f" opacity="0.1"/>
    <ellipse id="Ellipse_356" data-name="Ellipse 356" cx="49.534" cy="8.391" rx="49.534" ry="8.391" transform="translate(171.199 310.216)" fill="#303f9f" opacity="0.1"/>
    <ellipse id="Ellipse_357" data-name="Ellipse 357" cx="103.316" cy="16.182" rx="103.316" ry="16.182" transform="translate(263.368 260.887)" fill="#303f9f" opacity="0.1"/>
    <path id="Path_16391" data-name="Path 16391" d="M127.105,524.737a28.749,28.749,0,0,0,1.5,28.863,7.14,7.14,0,0,0,2.418,2.609c3.21,1.261,9.639,4.362,9.639,4.362l15.481-6.083s2.513-13.3,4.89-24.71h0c1.621-7.786,3.187-14.693,3.829-15.9,1.6-2.982,0-35.451,0-35.451s-15.481-1.038-19.738,10.9l-1.862,3.643Z" transform="translate(-105.692 -275.912)" fill="#a8a8a8"/>
    <path id="Path_16392" data-name="Path 16392" d="M169.7,528.331c9.411,10.787,13.382,1.457,13.382,1.457h0c1.621-7.786,3.187-14.693,3.829-15.9,1.6-2.982,0-35.451,0-35.451s-15.481-1.038-19.738,10.9l-1.862,3.643C164.117,502.519,162.938,520.568,169.7,528.331Z" transform="translate(-127.733 -275.917)" fill="#fff" opacity="0.1"/>
    <path id="Path_16393" data-name="Path 16393" d="M180.59,514.35l54.638-6.311,9.748-64.145-7.372-16.66A67.505,67.505,0,0,0,224.856,408c-3.711-3.911-8.2-7.672-12.913-9.562a19.378,19.378,0,0,0-1.972-.674,5.1,5.1,0,0,0-4.553.806c-6.739,4.776-9.147,25.083-9.926,34.859a109.079,109.079,0,0,1-1.625,11.97Z" transform="translate(-136.556 -231.872)" fill="#a8a8a8"/>
    <path id="Path_16394" data-name="Path 16394" d="M246.634,443.2l-11.383,28c5.965-4.362,14.8-28.116,14.8-28.116l7.918,27.082-6.311-28.544a89.274,89.274,0,0,0,.8-18.732c-.5-7.167-7.226-18.668-10.878-24.46a19.375,19.375,0,0,0-1.972-.674,5.1,5.1,0,0,0-4.553.806c2.868,5.76,10.04,20.161,12.225,24.441C250.058,428.394,246.634,443.2,246.634,443.2Z" transform="translate(-166.225 -231.867)" fill="#fff" opacity="0.1"/>
    <path id="Path_16395" data-name="Path 16395" d="M280.89,569.241h29.646a8.992,8.992,0,0,0,8.983-9.448c-.656-12.712-2.318-35.378-6.27-49.766-2.135-7.763-4.617-11.838-6.894-13.846a6.725,6.725,0,0,0-3.92-1.844,5.145,5.145,0,0,0-3.187.774c-5.5,5.277-11.934,33.047-11.934,33.047Z" transform="translate(-191.188 -284.582)" fill="#a8a8a8"/>
    <path id="Path_16396" data-name="Path 16396" d="M314.218,590.956a14.554,14.554,0,0,1,0,11.087l-6.607,3.265s-17.757-7.526-15.6-22.953c0,0,.583-3.187,6.7-2.941a17.334,17.334,0,0,1,15.508,11.542Z" transform="translate(-197.147 -330.925)" fill="#fff" opacity="0.1"/>
    <path id="Path_16397" data-name="Path 16397" d="M315.483,504.086c-.2-5.409,2.732-7.285,5.159-7.881a6.725,6.725,0,0,0-3.92-1.844,10.408,10.408,0,0,0-3.419,5.464l-6.192,30.183S315.829,513.151,315.483,504.086Z" transform="translate(-205.47 -284.605)" fill="#fff" opacity="0.1"/>
    <path id="Path_16398" data-name="Path 16398" d="M207.636,568.14l14.679,20.079,2.545,16.573-9.434,4.658-13.6,3.005a13.073,13.073,0,0,1-3.993.26l-37.113-3.265,5.049-11.706,17.439-24.482Z" transform="translate(-125.734 -324.792)" fill="#a8a8a8"/>
    <path id="Path_16399" data-name="Path 16399" d="M207.972,552.99s10.017.688,6.256,17.9S171.77,589.48,171.77,589.48s8.223-14.57,20.872-25.01c1.421-1.17,2.791-2.39,4.1-3.693C199.649,557.867,205.213,552.754,207.972,552.99Z" transform="translate(-131.752 -316.536)" fill="#fff" opacity="0.1"/>
    <path id="Path_16400" data-name="Path 16400" d="M271.07,581.5s13.573,12.353,12.294,31.362" transform="translate(-185.839 -332.069)" opacity="0.1"/>
    <path id="Path_16401" data-name="Path 16401" d="M302.27,496.06S288.028,515,286.43,544.146" transform="translate(-194.206 -285.531)" opacity="0.1"/>
    <path id="Path_16402" data-name="Path 16402" d="M201.517,478.43s6.893,31.3-10.317,54.9" transform="translate(-142.335 -275.928)" opacity="0.1"/>
    <path id="Path_16403" data-name="Path 16403" d="M484.637,640.588h74.28a4.162,4.162,0,0,0,3.643-6.133l-37.122-68.971a4.157,4.157,0,0,0-7.321,0l-37.14,68.971a4.162,4.162,0,0,0,3.661,6.133Zm41.866-12.6h-9.452v-9.448H526.5Zm0-15.749h-9.452v-18.9H526.5Z" transform="translate(-299.901 -322.154)" fill="#464353"/>
    <path id="Path_16404" data-name="Path 16404" d="M484.637,640.588h74.28a4.162,4.162,0,0,0,3.643-6.133l-37.122-68.971a4.157,4.157,0,0,0-7.321,0l-37.14,68.971a4.162,4.162,0,0,0,3.661,6.133Zm41.866-12.6h-9.452v-9.448H526.5Zm0-15.749h-9.452v-18.9H526.5Z" transform="translate(-299.901 -322.154)" fill="#091e42" opacity="0.1"/>
    <path id="Path_16405" data-name="Path 16405" d="M484.637,645.588h74.28a4.162,4.162,0,0,0,3.643-6.133l-37.122-68.971a4.157,4.157,0,0,0-7.321,0l-37.14,68.971a4.162,4.162,0,0,0,3.661,6.133Zm41.866-12.6h-9.452v-9.448H526.5Zm0-15.749h-9.452v-18.9H526.5Z" transform="translate(-299.901 -324.877)" fill="#091e42"/>
    <path id="Path_16406" data-name="Path 16406" d="M229.477,424.225a5.1,5.1,0,0,0-1.052-.51c-1.22-.455-2.522-.574-3.743-1.011a5.359,5.359,0,0,1-1.88-1.111c-.091-.091-.178-.182-.26-.278.455-.287.87-.574,1.32-.842a15.644,15.644,0,0,0-5.491-5.464c.733-1.079,2.386-.993,3.351-1.862a3.187,3.187,0,0,0,.911-1.789,12.368,12.368,0,0,0-.533-5.4,66.622,66.622,0,0,0-3.142-10.176,40.1,40.1,0,0,1-1.7-4.125c-1.179-3.925-.355-8.2-1.248-12.207a8.563,8.563,0,0,1-.428-3.893c.5-1.976,2.7-3.146,3.187-5.122,1.748-7.035,2.063-14.333,3.055-21.514a27.685,27.685,0,0,0,.369-4.13c0-1.452-.26-2.891-.364-4.339-.282-4.066.533-8.127.883-12.189a12.749,12.749,0,0,1,1.653,4.075,16.45,16.45,0,0,1,.1,4.043,18.988,18.988,0,0,1-.287,2.691c-.223,1.056-.615,2.067-.874,3.124a9.657,9.657,0,0,0,.433,6.265c.619,1.366,1.981,2.632,3.4,2.222a3.669,3.669,0,0,0,2.008-2.181c1.366-2.9,2.126-6.251,1.207-9.329-.606-2.049-1.935-3.9-2.058-6.042a15.62,15.62,0,0,1,.2-2.554c.569-4.945-.66-9.912-.933-14.884a29.044,29.044,0,0,0-.25-4.348c-.036-.168-.077-.337-.128-.5a1.064,1.064,0,0,1,.328.15,2.968,2.968,0,0,0-.064-2.545,6.482,6.482,0,0,1-.428-.8c-.173-.455-.141-.983-.355-1.421a6.067,6.067,0,0,0-.455-.66,5.3,5.3,0,0,1-.633-2.987q-.1-8.086-.455-16.155a26.456,26.456,0,0,0-1.234-8.091,12.129,12.129,0,0,0-4.28-5.678,9.968,9.968,0,0,0-.961-.6,3.333,3.333,0,0,0,.273-1.229,2.945,2.945,0,0,0,0-.4l-.027-.228h0a9.607,9.607,0,0,0-.911-2.732,7.677,7.677,0,0,1-.87-2.987,4.632,4.632,0,0,1,.032-.565h0c.155-1.311.838-2.541,1.079-3.852a6.608,6.608,0,0,0,.1-1.234c0-.141,0-.287,0-.433a12.411,12.411,0,0,0-1.462-4.6c-.228-.455-.455-.911-.71-1.366-.118-.851-.25-1.7-.382-2.55-.073-.492-.15-.983-.255-1.471q-.077-.364-.178-.71c.706-.665.3-1.639-.155-2.541-.87-1.712-.688-3.756-1.056-5.641a17.045,17.045,0,0,0-1.339-3.788,8.442,8.442,0,0,0-1.452-2.386,8.9,8.9,0,0,0-1.88-1.366,5.986,5.986,0,0,0-1.867-.842c-.414-.082-.838-.077-1.248-.173a3.951,3.951,0,0,1-.765-.278,5.2,5.2,0,0,0-1.635-.6,3.643,3.643,0,0,0-1.575.3,5.8,5.8,0,0,1-1.694.455h-.642a1.425,1.425,0,0,0-.87.209,3.288,3.288,0,0,0-.373.382,5.041,5.041,0,0,1-1.1.751,10.814,10.814,0,0,0-5.309,9.243,4.58,4.58,0,0,1-.132,1.5c-.132.382-.392.715-.5,1.106a3.1,3.1,0,0,0-.05,1.038c.036.533.091,1.061.15,1.594h0a3.351,3.351,0,0,0-.665,1.471h0a2.007,2.007,0,0,0-.041.282v.036h0a8.245,8.245,0,0,0,.692,2.732,9.708,9.708,0,0,1-.137,5.359,21.1,21.1,0,0,0-.911,3.642h0v.082a4.4,4.4,0,0,0,.209,1.821c.15.414.373.8.51,1.22.483,1.484-.219,3.042-1.147,4.344h0c-.146.2-.3.4-.455.592h.023l-.023.023.947.669c-.278.146-.555.305-.838.455a8.613,8.613,0,0,0-3.087,1.143,12.554,12.554,0,0,0-2.5,1.667,10.622,10.622,0,0,0-1.976,2.732,34.333,34.333,0,0,0-1.676,3.533,11.066,11.066,0,0,0-.856,3.064c-.392.833-.715,1.73-1.075,2.536-.182.414-.36.829-.537,1.243l-15.672-38.374-2.431,1.011.191.455-.505.214.688,1.676c-.1.068-.2.137-.3.209l-.127.1-.255.2-.127.1-.26.219-.1.082-.323.3h0c-.346.314-.678.647-1,.979l-.833.861-.159.169-.278.282-.155.159-.4.4-.027.027-.246.237-.155.146c-.064.064-.132.123-.2.182l-.191.178-.31.264-.091.082-.423.337a11.868,11.868,0,0,1-1.821,1.17c-2.491,1.289-5.127,2.368-7.558,3.747a21.756,21.756,0,0,0-3.743,2.623c-1.607,1.425-2.969,3.187-4.831,4.221l-.2.109c-3.3,1.694-7.18.678-10.928.606-.56,0-1.111,0-1.657.036a20.93,20.93,0,0,0-8.514,2.973c-1.894,1.061-3.743,2.254-5.6,3.333-1.175.678-2.354,1.416-3.538,2.172a79.95,79.95,0,0,1-9.193,5.355,19.321,19.321,0,0,1-9.106,2.026h-.041a7.594,7.594,0,0,1-.911-.077c-.3,2.39,1.616,4.316,2.891,6.42a6.507,6.507,0,0,1,1.079,3.042,5.465,5.465,0,0,1-.091,1.22c-.255,1.475-.938,2.923-.751,4.407a5.1,5.1,0,0,0,.97,2.395c.81,1.156,1.935,2.186,2.7,3.392,1.156,1.821,1.457,4.039,1.908,6.183a13.009,13.009,0,0,0,1.5,4.285,18.305,18.305,0,0,0,3.9,3.948c.26.223.515.455.76.683.182.164.36.337.528.515,1.653,1.689,2.882,4.294,1.885,6.406-.032.073-.068.137-.1.2a1.818,1.818,0,0,0,.25.15c1.27.619,2.864-.373,3.907-1.425.515-.515,1-1.061,1.475-1.616,1.27-1.411,2.436-2.941,3.643-4.407.328-.4.656-.783.993-1.166a16.846,16.846,0,0,1,4.5-3.643,16.524,16.524,0,0,1,2.759-1.12c1.411-.455,2.868-.792,4.285-1.238a35.194,35.194,0,0,0,5.641-2.368,86.767,86.767,0,0,0,9.106-5.646l.455-.3a15.608,15.608,0,0,0,2.709-2.163c.146-.159.287-.323.419-.492.71-.911,1.17-1.99,1.821-2.937a9.445,9.445,0,0,1,2.554-2.463c2.809-1.89,6.538-2.609,9.876-3.643h.036a38.384,38.384,0,0,0,15.558-9.238l2.5,6.11q-.387,1.084-.733,2.19a17.806,17.806,0,0,1-2.1,5.236,3.907,3.907,0,0,0-.792,1.407,4.552,4.552,0,0,1-.187,1.129c-.155.31-.478.514-.61.833-.191.455.059,1.043-.2,1.471a2.313,2.313,0,0,1-.433.455,3.023,3.023,0,0,0-.824,2.318,8.117,8.117,0,0,1-.2,2.513,5.991,5.991,0,0,1,.587-.305,2.73,2.73,0,0,0-.05.455,5.071,5.071,0,0,0,.159,1.279,10.1,10.1,0,0,0,1.33,2.659,18.9,18.9,0,0,0,1.425,2.049,18.671,18.671,0,0,0,3.014,2.7l4.59,3.542-.455,1.917a53.574,53.574,0,0,0-2.063,12.225,52.679,52.679,0,0,0,.369,5.869l.4,4c.319,3.219.637,6.438.988,9.657A24.73,24.73,0,0,0,182,359.211c1.084,2.918-.114,6.215.346,9.3.364,2.418,1.084,4.917.36,7.253-.291.911-.8,1.785-1.175,2.686a20.159,20.159,0,0,0-1.106,7.158,30.417,30.417,0,0,0,.232,6.374c.392,2.176,1.257,4.312,1.088,6.52-.237,3.137-2.532,5.819-2.809,8.956-.223,2.5.865,4.917,2.035,7.135.861,1.635-.342,3.747-.8,5.546-.911,3.529.6,7.217,2.445,10.345a.51.51,0,0,0,.232.246c.209.077.405-.132.542-.31a3.72,3.72,0,0,1,.273-.323c0,.141.027.282.036.419,0,.3.023.592.023.911a9.15,9.15,0,0,0,.619,3.369,5.948,5.948,0,0,0,.255.61,2.815,2.815,0,0,0,.455.733,2.782,2.782,0,0,0,1.821.765,23.586,23.586,0,0,0,4.553-.282c1.6-.137,3.21-.077,4.817-.114a.7.7,0,0,0,.36-.077.615.615,0,0,0,.2-.328,3.643,3.643,0,0,0,.077-1.794,12.723,12.723,0,0,0-.341-1.425c-.214-.751-.41-1.507-.6-2.277-.036-.141-.068-.282-.1-.423l.073.032q1.471-3.306,2.946-6.611a5.953,5.953,0,0,0,.756-3.52,10.346,10.346,0,0,0-1.111-2.363,13.871,13.871,0,0,1-.961-6.074l-.055-11.711a25.653,25.653,0,0,0,4.553-9.94,32.15,32.15,0,0,1,.269,15.481,14.42,14.42,0,0,0-.433,2.359c-.178,3.246,2.349,6,3.023,9.175a2.066,2.066,0,0,1,.05.747,2.8,2.8,0,0,1-.373.865c-1.211,2.217-1.079,4.895-.911,7.417l.533.087a1.412,1.412,0,0,0,.565.555h0a2.788,2.788,0,0,0,.706.292,17.4,17.4,0,0,0,2.654.405c1.284.128,2.573.255,3.861.337.51.032,1.02.059,1.53.073a15.288,15.288,0,0,1,2.143.151,15.481,15.481,0,0,1,2.274.66c3.319,1.111,7.035,1.744,10.249.36a4.617,4.617,0,0,0,1.871-1.325,2.2,2.2,0,0,0-.551-3.424Zm-44.038-129.8c.483.961.965,1.917,1.366,2.914a10.049,10.049,0,0,1,.765,6.11c-.146.592-1.1,1.047-1.093,1.657a1.371,1.371,0,0,0-.073.141l-2.973-7.285a25.988,25.988,0,0,1,2.008-3.538Zm-3.265,15.481a12.6,12.6,0,0,1-1.612-2.782c-.055-.123-.114-.241-.168-.364a1.093,1.093,0,0,0,.433-.323c.455-.574.209-1.411.278-2.149a4.643,4.643,0,0,1,.724-1.821l2.791,6.83q-.423,1.111-.792,2.245A15.929,15.929,0,0,1,182.174,309.909Z" transform="translate(-85.543 -140.659)" fill="url(#linear-gradient)"/>
    <path id="Path_16407" data-name="Path 16407" d="M316.181,262.833a8.151,8.151,0,0,0,.7,2.732,9.666,9.666,0,0,1-.132,5.345c-.51,1.821-1.366,3.747-.715,5.528.15.419.378.8.514,1.22.565,1.73-.483,3.551-1.63,4.967l4.5,3.155a5.177,5.177,0,0,0,2.277,1.088,1.782,1.782,0,0,0,1.994-1.179c.059-.282,0-.578.055-.865a2.349,2.349,0,0,1,1.261-1.748,4.125,4.125,0,0,1,2.181-.405c2.764.15,5.113,1.967,7.627,3.133a30.68,30.68,0,0,0,5.131,1.7,4.123,4.123,0,0,0,3.005,0,2.85,2.85,0,0,0,1.248-2.691,8.8,8.8,0,0,0-.956-2.964,7.54,7.54,0,0,1-.879-2.982c0-1.53.838-2.923,1.12-4.426.4-2.135-.41-4.307-1.393-6.247a26.469,26.469,0,0,1-2.655-5.919,8.649,8.649,0,0,0-.5-1.871,4.262,4.262,0,0,0-.911-1.22,10.193,10.193,0,0,0-6.456-2.636,29.257,29.257,0,0,0-7.08.619,14.807,14.807,0,0,0-2.627.624,16.689,16.689,0,0,0-3.456,1.871A4.5,4.5,0,0,0,316.181,262.833Z" transform="translate(-209.724 -155.05)" fill="#5d4037"/>
    <g id="Group_9410" data-name="Group 9410" transform="translate(105.183 107.482)" opacity="0.1">
      <path id="Path_16408" data-name="Path 16408" d="M375.17,297.426a2,2,0,0,0,.027.405c.141-1.334.842-2.586,1.093-3.92a6.478,6.478,0,0,0,.087-1.621,4.448,4.448,0,0,1-.087.71C376,294.5,375.151,295.9,375.17,297.426Z" transform="translate(-347.723 -282.023)"/>
      <path id="Path_16409" data-name="Path 16409" d="M318.692,274.594a8.153,8.153,0,0,0-.305-2.732,15.85,15.85,0,0,1-.66-2.122c0,.1-.036.187-.041.282a8.154,8.154,0,0,0,.7,2.732,7.687,7.687,0,0,1,.305,1.84Z" transform="translate(-316.411 -269.74)"/>
      <path id="Path_16410" data-name="Path 16410" d="M344.144,314.728a2.6,2.6,0,0,1-1.22,2.008,4.122,4.122,0,0,1-3.005,0,30.29,30.29,0,0,1-5.131-1.707c-2.513-1.161-4.863-2.978-7.627-3.128a4.126,4.126,0,0,0-2.181.405,2.349,2.349,0,0,0-1.261,1.748c-.032.287,0,.583-.055.865a1.784,1.784,0,0,1-1.994,1.179,5.176,5.176,0,0,1-2.277-1.088l-4.048-2.841c-.15.2-.3.405-.455.592l4.5,3.16a5.176,5.176,0,0,0,2.277,1.088,1.782,1.782,0,0,0,1.994-1.179c.059-.282,0-.578.055-.865a2.35,2.35,0,0,1,1.261-1.748,4.126,4.126,0,0,1,2.181-.405c2.764.15,5.113,1.967,7.627,3.128a30.287,30.287,0,0,0,5.131,1.707,4.122,4.122,0,0,0,3.005,0,2.85,2.85,0,0,0,1.248-2.691C344.167,314.878,344.153,314.806,344.144,314.728Z" transform="translate(-314.89 -292.695)"/>
      <path id="Path_16411" data-name="Path 16411" d="M317.6,299.233a3.518,3.518,0,0,1,.123.56,3.3,3.3,0,0,0-.123-1.471c-.137-.419-.364-.8-.515-1.22a3.809,3.809,0,0,1-.209-.943,4.28,4.28,0,0,0,.209,1.853C317.24,298.432,317.468,298.819,317.6,299.233Z" transform="translate(-315.961 -284.131)"/>
    </g>
    <path id="Path_16412" data-name="Path 16412" d="M314.213,671.213a.6.6,0,0,1-.209.328.7.7,0,0,1-.36.077c-1.621.036-3.242,0-4.858.114a23.23,23.23,0,0,1-4.59.282,2.354,2.354,0,0,1-2.277-1.5,5.962,5.962,0,0,1-.255-.61,9.066,9.066,0,0,1-.624-3.369c0-.3,0-.6,0-.911a6.9,6.9,0,0,0-.132-.993,1.507,1.507,0,0,1,.046-1.152c.647-1.179,2.208-1.416,3.41-1.507a28.165,28.165,0,0,1,8.31.61c.214,1.047.455,2.085.71,3.124q.282,1.143.6,2.276a12.758,12.758,0,0,1,.346,1.425A3.642,3.642,0,0,1,314.213,671.213Z" transform="translate(-202.042 -375.859)" fill="#464353"/>
    <path id="Path_16413" data-name="Path 16413" d="M315.228,680.211a.6.6,0,0,1-.209.328.7.7,0,0,1-.36.078c-1.621.036-3.242,0-4.858.114a23.229,23.229,0,0,1-4.59.282,2.354,2.354,0,0,1-2.277-1.5,5.952,5.952,0,0,1-.255-.61h.583c1.917,0,3.838-.068,5.755-.068a14.673,14.673,0,0,0,1.735-.1c.574-.068,1.043-.164,1.566-.228a21.412,21.412,0,0,1,2.359-.1h.647A3.644,3.644,0,0,1,315.228,680.211Z" transform="translate(-203.057 -384.857)" opacity="0.06"/>
    <path id="Path_16414" data-name="Path 16414" d="M372.6,655.145a4.658,4.658,0,0,1-1.885,1.325c-3.242,1.366-6.989.751-10.336-.36a15.75,15.75,0,0,0-2.3-.66,15.474,15.474,0,0,0-2.154-.15c-.514,0-1.029-.041-1.543-.073-1.3-.082-2.6-.209-3.893-.337a17.584,17.584,0,0,1-2.677-.405,2.844,2.844,0,0,1-.715-.292h0a1.1,1.1,0,0,1-.656-.979c.036-.578.637-.911,1.166-1.161,4.685-2.026,9.776-2.9,14.83-3.611a5.95,5.95,0,0,0,1.489-.455c.569-.228.628.146.911.565a3.507,3.507,0,0,0,.455.537,5.417,5.417,0,0,0,1.894,1.111c1.229.455,2.545.578,3.775,1.011a5.174,5.174,0,0,1,1.061.51,2.195,2.195,0,0,1,.555,3.424Z" transform="translate(-226.892 -368.246)" fill="#464353"/>
    <path id="Path_16415" data-name="Path 16415" d="M382.1,659.694a4.659,4.659,0,0,1-1.885,1.325c-3.242,1.366-6.989.751-10.336-.36a15.76,15.76,0,0,0-2.3-.66,15.5,15.5,0,0,0-2.154-.15c-.515,0-1.029-.041-1.544-.073.419-.4.847-.783,1.284-1.157a3.824,3.824,0,0,1,1.079-.71,3.123,3.123,0,0,1,1.534-.1c2.6.36,4.945,2.186,7.572,2.026a9.316,9.316,0,0,0,3.483-1.125,6.079,6.079,0,0,0,2.277-1.621,2.626,2.626,0,0,0,.423-.815,2.195,2.195,0,0,1,.556,3.424Z" transform="translate(-236.392 -372.795)" opacity="0.06"/>
    <path id="Path_16416" data-name="Path 16416" d="M389.237,443.5a3.77,3.77,0,0,1-2.022,2.181c-1.43.41-2.8-.874-3.429-2.222a9.6,9.6,0,0,1-.455-6.265c.26-1.052.656-2.063.879-3.119a19,19,0,0,0,.291-2.691,16.453,16.453,0,0,0-.1-4.043c-.733-3.911-4.1-6.83-5.218-10.673a19.917,19.917,0,0,1-.505-5.956,6.124,6.124,0,0,1,.155-1.5,2.344,2.344,0,0,1,.137-.392c.751-1.666,2.978-1.894,4.526-2.864.856-.533,2.8-2.249,3.52-.683a5.151,5.151,0,0,1,.346,1.088,28.942,28.942,0,0,1,.25,4.344c.278,4.972,1.516,9.935.943,14.88a15.517,15.517,0,0,0-.2,2.55c.123,2.14,1.462,3.993,2.076,6.042C391.382,437.256,390.621,440.611,389.237,443.5Z" transform="translate(-244.447 -235.728)" fill="#fce4ec"/>
    <path id="Path_16417" data-name="Path 16417" d="M387.618,406.356a1.535,1.535,0,0,0-1.047,0l-3.082.911a19.087,19.087,0,0,0-3.146,1.143,7.381,7.381,0,0,0-1.252.779,2.349,2.349,0,0,1,.137-.392c.751-1.666,2.978-1.894,4.526-2.864.856-.533,2.8-2.249,3.52-.683A5.147,5.147,0,0,1,387.618,406.356Z" transform="translate(-244.676 -235.717)" opacity="0.1"/>
    <path id="Path_16418" data-name="Path 16418" d="M380.52,359.624a1.393,1.393,0,0,0-1.248-.1l-3.082.911a19.089,19.089,0,0,0-3.146,1.143,7.225,7.225,0,0,0-1.5.974c-1.439-2.5-1.821-5.464-2.085-8.332-.146-1.671-.255-3.347-.319-5.008a22.462,22.462,0,0,1,.073-3.588c.173-1.366.569-2.7.815-4.057a18.5,18.5,0,0,0,.282-2.4,23.506,23.506,0,0,0-.241-5.277,32.7,32.7,0,0,0-1.266-5.464c-.291-.815-.642-1.6-.961-2.4l-.109-.282a33.2,33.2,0,0,1-1.407-4.512c-.146-.628-.155-1.289-.637-1.717a8.561,8.561,0,0,1,1.366-.055h.273a10.213,10.213,0,0,1,5.209,1.821,12.171,12.171,0,0,1,4.316,5.71,26.279,26.279,0,0,1,1.243,8.086q.369,8.068.455,16.146a5.154,5.154,0,0,0,.637,2.987,6.1,6.1,0,0,1,.455.66c.214.455.182.961.355,1.421a7.184,7.184,0,0,0,.433.8,2.937,2.937,0,0,1,.086,2.541Z" transform="translate(-237.378 -189.332)" fill="#172b4d"/>
    <path id="Path_16419" data-name="Path 16419" d="M330.066,289.765c-.455-.15-.911-.31-1.366-.455l.947.073a1.914,1.914,0,0,1,.419.383Z" transform="translate(-217.23 -172.918)" fill="#fbbebe"/>
    <path id="Path_16420" data-name="Path 16420" d="M346.008,306.753c-.091.31-.182.619-.282.911a17.416,17.416,0,0,1-.842,2.19,10.191,10.191,0,0,1-2.154,3.123,2.86,2.86,0,0,1-1.075.71,3.416,3.416,0,0,1-1.056.1q-1.821,0-3.643-.055a12.944,12.944,0,0,1-2.814-.278,10.049,10.049,0,0,1-2.868-1.293,17.028,17.028,0,0,1-7.394-9.106,1.509,1.509,0,0,1,.077-1.439,1.761,1.761,0,0,1,1.161-.4h.055a7.337,7.337,0,0,0,2.773-.952,2.85,2.85,0,0,0,1.266-1.293,3.488,3.488,0,0,0-.041-2.013l-1.011-4.59a4.754,4.754,0,0,0-.806-2.044c.3.1.592.2.911.282,2.814.76,5.892.3,8.651,1.3a3.686,3.686,0,0,1,2.431,2.167c.533,1.821-1.248,3.711-.738,5.532.341,1.238,1.6,1.953,2.732,2.532l.76.387,2.108,1.07.291.146.046.023a2.86,2.86,0,0,1,1.6,1.471,2.733,2.733,0,0,1-.137,1.516Z" transform="translate(-214.526 -173.473)" fill="#fce4ec"/>
    <path id="Path_16421" data-name="Path 16421" d="M351.563,329.855a9.833,9.833,0,0,1-.838,3.369,13.764,13.764,0,0,0-1.434,5.919c-.351,6.147-2.686,13.464.66,18.627.082.128.164.255.241.387a7.229,7.229,0,0,0-1.5.974c-1.439-2.5-1.821-5.464-2.085-8.332-.146-1.671-.255-3.347-.319-5.009a22.459,22.459,0,0,1,.073-3.588c.173-1.366.569-2.7.815-4.057a18.52,18.52,0,0,0,.282-2.4,23.509,23.509,0,0,0-.241-5.277A32.7,32.7,0,0,0,345.953,325c-.291-.815-.642-1.6-.961-2.4l-.109-.282a10.188,10.188,0,0,1-2.154,3.123,2.859,2.859,0,0,1-1.075.71,3.414,3.414,0,0,1-1.056.1q-1.821,0-3.643-.055a12.936,12.936,0,0,1-2.814-.278,10.05,10.05,0,0,1-2.868-1.293,17.028,17.028,0,0,1-7.394-9.106,1.509,1.509,0,0,1,.077-1.439,1.762,1.762,0,0,1,1.161-.4h.055l4.1,5.068a8.194,8.194,0,0,1,1.184,1.771,1.057,1.057,0,0,0,.364.542.933.933,0,0,0,.455.082H344.1a3.329,3.329,0,0,0-.565-1.917c-.118.027-.278.036-.032-.036a12.9,12.9,0,0,0-1.411-4.221,2.938,2.938,0,0,0-.141-.264,4.854,4.854,0,0,1-.674-1.475,1.869,1.869,0,0,1,2.591,1.407c.21.455.419.943.606,1.421,0,.05.046.1.064.155a10.307,10.307,0,0,1,.756,2.955c.027.373.118.847.428.97a.405.405,0,0,0,.155.036,1.721,1.721,0,0,1,1.862.455,4.1,4.1,0,0,1,.911,1.794,9.824,9.824,0,0,0,.647,1.93c.587,1.12-.31,1.621.751,2.309a3.7,3.7,0,0,1,1.248,1.12A3.5,3.5,0,0,1,351.563,329.855Z" transform="translate(-214.526 -185.884)" opacity="0.1"/>
    <path id="Path_16422" data-name="Path 16422" d="M312.584,662.625c.214,1.047.455,2.085.71,3.123l-.027.064a21.14,21.14,0,0,0-6.484-2.063,7.184,7.184,0,0,0-5.833,1.917,6.9,6.9,0,0,0-.132-.993,1.507,1.507,0,0,1,.046-1.152c.647-1.179,2.208-1.416,3.41-1.507A28.161,28.161,0,0,1,312.584,662.625Z" transform="translate(-201.993 -375.881)" opacity="0.1"/>
    <path id="Path_16423" data-name="Path 16423" d="M366.01,328.37c.214,0,.137,0,.032.036S365.764,328.443,366.01,328.37Z" transform="translate(-237.483 -194.193)" opacity="0.1"/>
    <path id="Path_16424" data-name="Path 16424" d="M365.313,649.089a39.561,39.561,0,0,0-5.7,4.412,5.968,5.968,0,0,1-1.8,1.316,5.255,5.255,0,0,1-2.167.223,73.77,73.77,0,0,1-8.551-.847h0a1.1,1.1,0,0,1-.656-.979c.036-.578.637-.911,1.166-1.161,4.685-2.026,9.776-2.9,14.83-3.611a5.939,5.939,0,0,0,1.489-.455c.569-.228.628.146.911.565A3.5,3.5,0,0,0,365.313,649.089Z" transform="translate(-226.892 -368.246)" opacity="0.1"/>
    <path id="Path_16425" data-name="Path 16425" d="M301.5,314.849c.669.6,1.434,1.079,2.113,1.657a19.113,19.113,0,0,1,4.1,5.805,3.8,3.8,0,0,1-2.09.141,14.987,14.987,0,0,0,.178,6.088,5.646,5.646,0,0,0-2.035,2.527,16.894,16.894,0,0,0-.665,3.187q-.983,7.108-1.976,14.215a2.2,2.2,0,0,1-.455,1.279,2.458,2.458,0,0,0-.346.341,1.89,1.89,0,0,0-.159.979c-.027.332-.246.729-.578.683a.72.72,0,0,1-.405-.264,9.3,9.3,0,0,1-.911-1.129c-2.686,5.154-3.979,10.709-5.4,16.346a39.594,39.594,0,0,0-1.712,18.085l.4,4c.323,3.215.647,6.434,1,9.648a24.285,24.285,0,0,0,1.188,6.019c1.093,2.919-.118,6.211.346,9.3.364,2.418,1.088,4.917.36,7.249-.291.933-.8,1.785-1.184,2.686a20.166,20.166,0,0,0-1.116,7.158,30.051,30.051,0,0,0,.237,6.374c.392,2.181,1.27,4.316,1.1,6.52-.241,3.137-2.554,5.819-2.837,8.952-.223,2.5.874,4.913,2.054,7.13.87,1.635-.341,3.747-.8,5.546-.911,3.524.606,7.212,2.463,10.34a.5.5,0,0,0,.237.246c.214.077.405-.132.546-.31a7.007,7.007,0,0,1,6.147-2.277,20.573,20.573,0,0,1,6.484,2.063l2.955-6.579a5.89,5.89,0,0,0,.76-3.52,10.191,10.191,0,0,0-1.12-2.363,13.8,13.8,0,0,1-.965-6.074l-.055-11.7a25.59,25.59,0,0,0,4.6-9.935,31.873,31.873,0,0,1,.273,15.481,14.039,14.039,0,0,0-.455,2.359c-.178,3.246,2.368,5.992,3.046,9.17a1.972,1.972,0,0,1,.055.747,2.813,2.813,0,0,1-.378.865c-1.22,2.213-1.088,4.895-.911,7.417a73.9,73.9,0,0,0,9.657,1.034,5.427,5.427,0,0,0,2.167-.223,5.981,5.981,0,0,0,1.8-1.32,39.72,39.72,0,0,1,6.771-5.122,15.764,15.764,0,0,0-5.532-5.464c.733-1.079,2.4-.993,3.378-1.858a3.187,3.187,0,0,0,.911-1.794,12.189,12.189,0,0,0-.537-5.4A64.177,64.177,0,0,0,331,440.976a39.082,39.082,0,0,1-1.712-4.121c-1.193-3.925-.36-8.2-1.261-12.207a8.41,8.41,0,0,1-.433-3.888c.5-1.972,2.732-3.142,3.224-5.118,1.762-7.035,2.076-14.324,3.078-21.5a27.634,27.634,0,0,0,.36-4.148c0-1.452-.26-2.891-.364-4.339-.41-5.8,1.443-11.579.97-17.37a21.855,21.855,0,0,0-3.424-10.017c-3.347-5.168-1.011-12.48-.66-18.627a13.694,13.694,0,0,1,1.43-5.919,9.712,9.712,0,0,0,.842-3.369,3.482,3.482,0,0,0-.255-2.126,3.591,3.591,0,0,0-1.243-1.12c-1.061-.692-.164-1.193-.751-2.313a9.717,9.717,0,0,1-.647-1.931,4.062,4.062,0,0,0-.911-1.789,1.721,1.721,0,0,0-1.862-.455c-.433,0-.551-.574-.587-1.006a14.187,14.187,0,0,0-1.421-4.53,2.473,2.473,0,0,0-1.1-1.407,2.508,2.508,0,0,0-1.5,0,4.841,4.841,0,0,0,.678,1.48,12.856,12.856,0,0,1,1.548,4.48c-.455.137.455,0,0,0a3.187,3.187,0,0,1,.6,1.953H312.787a.911.911,0,0,1-.455-.082,1.093,1.093,0,0,1-.369-.542,7.894,7.894,0,0,0-1.184-1.767l-4.508-5.559a1.139,1.139,0,0,0-.387-.351,1.048,1.048,0,0,0-.569,0A10.24,10.24,0,0,0,301.5,314.849Z" transform="translate(-196.486 -185.954)" fill="#303f9f"/>
    <path id="Path_16426" data-name="Path 16426" d="M345.458,482.21a4.343,4.343,0,0,1,2.217.574,2.236,2.236,0,0,1,1.1,1.921,5.1,5.1,0,0,1-1.188,2.277,6.1,6.1,0,0,0-.7,1.439.578.578,0,0,0-.036.369c.055.173.241.26.4.337a3.419,3.419,0,0,1,2.008,2.987c-.041,1.776-1.776,3.215-1.68,5.008a10.292,10.292,0,0,0,.191,1.111,8.488,8.488,0,0,1-.615,4.5c-.551,1.43-1.3,2.773-1.894,4.189a29.714,29.714,0,0,0-1.821,12.294c.1,2.841-.911,5.546-1.821,8.25a118.584,118.584,0,0,0,.41-16.391c-.064-1.484-.25-2.887-.182-4.376.109-2.363,1.43-4.512,1.767-6.83a33.641,33.641,0,0,0,.1-4.011c.064-2.732.806-5.427.856-8.168C344.63,485.756,344.452,483.762,345.458,482.21Z" transform="translate(-224.267 -277.987)" opacity="0.1"/>
    <path id="Path_16427" data-name="Path 16427" d="M299.825,317.461a12.482,12.482,0,0,0-2.522,1.667,10.744,10.744,0,0,0-1.994,2.732,34.907,34.907,0,0,0-1.689,3.533,7.872,7.872,0,0,0-.733,4.936c.4,1.48,1.534,2.632,2.318,3.948a33.61,33.61,0,0,1,1.844,4.3c.8,1.926,1.9,3.72,2.691,5.651a10.007,10.007,0,0,1,.769,6.106c-.146.592-1.106,1.052-1.106,1.657,0,1,1.448,2.09,2.409,2.381a3.6,3.6,0,0,0,3.219-.911,11.839,11.839,0,0,0,3.419-5.273,53.937,53.937,0,0,0,2.422-9.93c.419-2.468.81-4.94,1.034-7.426a18.9,18.9,0,0,0-.323-6.7,11.382,11.382,0,0,0-3.11-5.172c-1.184-1.138-3.123-2.668-4.845-2.709A7.984,7.984,0,0,0,299.825,317.461Z" transform="translate(-197.634 -187.591)" fill="#172b4d"/>
    <path id="Path_16428" data-name="Path 16428" d="M302.184,414.73a2.177,2.177,0,0,1-1.015,1.516,5.978,5.978,0,0,1-1.735.71,7.2,7.2,0,0,1-3.747.369,7.522,7.522,0,0,1-2.632-1.5l-13.787-10.554a18.62,18.62,0,0,1-3.037-2.7,19.41,19.41,0,0,1-1.439-2.044,10.018,10.018,0,0,1-1.339-2.659,4.87,4.87,0,0,1-.164-1.279,2.409,2.409,0,0,1,.291-1.17c.332-.555,1.043-.669,1.625-.824a17.055,17.055,0,0,1,6-.455.815.815,0,0,1,.81.551c.305.56.569,1.143.842,1.726a12.478,12.478,0,0,0,1.625,2.782,23.479,23.479,0,0,0,2.026,1.953c1.457,1.366,2.65,3.005,4.2,4.262a35.1,35.1,0,0,0,6.033,3.392,11.14,11.14,0,0,1,5.1,4.53A2.654,2.654,0,0,1,302.184,414.73Z" transform="translate(-187.048 -229.972)" fill="#fce4ec"/>
    <path id="Path_16429" data-name="Path 16429" d="M344.826,264.254a11.273,11.273,0,1,1-.314-2.641A11.274,11.274,0,0,1,344.826,264.254Z" transform="translate(-213.732 -153.13)" opacity="0.1"/>
    <path id="Path_16430" data-name="Path 16430" d="M344.826,263.254a11.274,11.274,0,1,1-.314-2.641A11.274,11.274,0,0,1,344.826,263.254Z" transform="translate(-213.732 -152.585)" fill="#fce4ec"/>
    <path id="Path_16431" data-name="Path 16431" d="M282.856,396.4a2.665,2.665,0,0,1-1.931.077c-2.532-.565-5.327-.97-7.636.114a2.408,2.408,0,0,1,.291-1.17c.332-.555,1.043-.669,1.625-.824a17.054,17.054,0,0,1,6-.455.815.815,0,0,1,.81.551C282.319,395.238,282.583,395.821,282.856,396.4Z" transform="translate(-187.049 -229.972)" opacity="0.1"/>
    <path id="Path_16432" data-name="Path 16432" d="M277.45,351.312a17.772,17.772,0,0,1-2.117,5.236,3.868,3.868,0,0,0-.8,1.4,4.374,4.374,0,0,1-.187,1.129c-.155.31-.483.515-.615.833-.2.455.059,1.043-.2,1.471a2.182,2.182,0,0,1-.433.455,3.187,3.187,0,0,0-.788,2.336,7.953,7.953,0,0,1-.209,2.509c2.4-1.434,5.464-1.006,8.2-.4.76.168,1.7.3,2.195-.314s.209-1.411.278-2.145a8.517,8.517,0,0,1,1.152-2.618,31.172,31.172,0,0,0,.961-3.092c.724-2.145,2.277-3.893,3.274-5.919a5.689,5.689,0,0,0,.647-2.249,6.712,6.712,0,0,0-.779-2.919,39.927,39.927,0,0,0-3.369-6.015c-.578-.851-1.575-2.427-2.472-1.065a25.513,25.513,0,0,0-1.721,3.7,67.658,67.658,0,0,0-3.01,7.663Z" transform="translate(-186.4 -200.211)" fill="#172b4d"/>
    <path id="Path_16433" data-name="Path 16433" d="M343.311,287.909a9.2,9.2,0,0,1-7.367-2.91,1.129,1.129,0,0,1-.328-.533,1.07,1.07,0,0,1,.209-.747c.546-.842,1.489-1.4,1.926-2.3a7.314,7.314,0,0,0,.328-2.941c.073-1.78.774-3.542.833-5.3a5.532,5.532,0,0,0-.1-1.339,8.393,8.393,0,0,1-.382-2.017c.059-1.334,1.261-2.372,1.462-3.688.26-1.676-1.129-3.133-2.527-4.1a15.056,15.056,0,0,0-3.442-1.78,11.2,11.2,0,0,0-2.313-.56,9.015,9.015,0,0,0-4.357.487,7.121,7.121,0,0,0-1.621.865,2.195,2.195,0,0,0-.724.751,2.444,2.444,0,0,0-.191,1.088c-.027,1.862.182,3.843-.706,5.464-.455.87-1.229,1.575-1.607,2.5a4.149,4.149,0,0,0-.287,1.2,12.072,12.072,0,0,0-.068,1.284c-.027,2.4,0,4.931,1.22,7.012a18.292,18.292,0,0,1,1.17,1.962,2.236,2.236,0,0,1-.114,2.181,2.483,2.483,0,0,1-.911.683,7.285,7.285,0,0,1-5.824.209,7.381,7.381,0,0,0,1.721-8.232,4.858,4.858,0,0,1-.628-1.821,4.622,4.622,0,0,1,.455-1.666,9.106,9.106,0,0,0,.278-5.336,19.467,19.467,0,0,1-.847-3.246,9.82,9.82,0,0,1,.109-2.523,8.2,8.2,0,0,1,5.614-6.461c.232-.077.455-.15.71-.214a15.148,15.148,0,0,1,3.365-.36,25.543,25.543,0,0,1,7.526.505,10.1,10.1,0,0,1,3.9,2,7.034,7.034,0,0,1,1.885,2.491,8.651,8.651,0,0,1,.533,1.721c.1.487.182.979.26,1.471.551,3.5,1.1,7.071.514,10.568-.232,1.366-.637,2.732-.82,4.125C341.722,281.612,342.519,284.8,343.311,287.909Z" transform="translate(-211.178 -154.483)" fill="#5d4037"/>
    <circle id="Ellipse_358" data-name="Ellipse 358" cx="0.847" cy="0.847" r="0.847" transform="translate(115.108 136.23)" fill="#fff"/>
    <circle id="Ellipse_359" data-name="Ellipse 359" cx="0.847" cy="0.847" r="0.847" transform="translate(129.401 135.83)" fill="#fff"/>
    <path id="Path_16434" data-name="Path 16434" d="M336.371,235.913l-1.821-3.438a3.324,3.324,0,0,1,.378-.382,1.443,1.443,0,0,1,.879-.209Z" transform="translate(-220.416 -141.636)" opacity="0.1"/>
    <path id="Path_16435" data-name="Path 16435" d="M345.707,230.824l-2.063,3.051-1.175-3.347a3.725,3.725,0,0,1,1.589-.3,5.281,5.281,0,0,1,1.648.6Z" transform="translate(-224.73 -140.735)" opacity="0.1"/>
    <g id="Group_9411" data-name="Group 9411" transform="translate(106.412 104.218)" opacity="0.1">
      <path id="Path_16436" data-name="Path 16436" d="M324.324,316.425a2.482,2.482,0,0,1-.911.683,7.317,7.317,0,0,1-5.177.433,7.085,7.085,0,0,1-.647.688,7.285,7.285,0,0,0,5.824-.209,2.481,2.481,0,0,0,.911-.683,1.962,1.962,0,0,0,.291-1.575A1.617,1.617,0,0,1,324.324,316.425Z" transform="translate(-317.59 -291.543)"/>
      <path id="Path_16437" data-name="Path 16437" d="M320.475,278.245a8.973,8.973,0,0,1,.26,1.821,9.071,9.071,0,0,0-.26-2.732,19.469,19.469,0,0,1-.847-3.246,2.723,2.723,0,0,0-.023-.428,10.139,10.139,0,0,0,.023,1.339A19.468,19.468,0,0,0,320.475,278.245Z" transform="translate(-318.681 -268.611)"/>
      <path id="Path_16438" data-name="Path 16438" d="M372.175,292.453a19.913,19.913,0,0,0,.246-3.643,18.985,18.985,0,0,1-.246,2.732c-.232,1.366-.637,2.732-.82,4.125a14.375,14.375,0,0,0-.1,2.254,13.41,13.41,0,0,1,.1-1.343C371.538,295.184,371.943,293.832,372.175,292.453Z" transform="translate(-346.814 -276.863)"/>
      <path id="Path_16439" data-name="Path 16439" d="M320.578,299.417A7.484,7.484,0,0,1,320,298.01a2.057,2.057,0,0,0-.055.5,4.859,4.859,0,0,0,.628,1.821,6.877,6.877,0,0,1,.569,2.413A7.056,7.056,0,0,0,320.578,299.417Z" transform="translate(-318.875 -281.874)"/>
      <path id="Path_16440" data-name="Path 16440" d="M363.726,288.585a5.933,5.933,0,0,1,.087.628v-.2a5.535,5.535,0,0,0-.1-1.339c-.1-.478-.264-.952-.341-1.434a2.016,2.016,0,0,0-.041.328A8.394,8.394,0,0,0,363.726,288.585Z" transform="translate(-342.504 -275.463)"/>
      <path id="Path_16441" data-name="Path 16441" d="M357.5,318.012a2.412,2.412,0,0,1-.2-.232.943.943,0,0,0-.132.61,1.129,1.129,0,0,0,.328.533,9.2,9.2,0,0,0,7.367,2.909c-.077-.3-.155-.6-.228-.911A9.188,9.188,0,0,1,357.5,318.012Z" transform="translate(-339.145 -292.643)"/>
      <path id="Path_16442" data-name="Path 16442" d="M348.391,269.141a.2.2,0,0,1,0-.05c.26-1.676-1.129-3.133-2.527-4.1a15.065,15.065,0,0,0-3.442-1.78,11.218,11.218,0,0,0-2.313-.56,9.017,9.017,0,0,0-4.357.487,7.119,7.119,0,0,0-1.621.865,2.195,2.195,0,0,0-.724.751,2.444,2.444,0,0,0-.191,1.088v.911a2.445,2.445,0,0,1,.191-1.088,2.195,2.195,0,0,1,.724-.751,7.118,7.118,0,0,1,1.621-.865,9.015,9.015,0,0,1,4.357-.487,11.2,11.2,0,0,1,2.313.56,15.057,15.057,0,0,1,3.442,1.78A5.438,5.438,0,0,1,348.391,269.141Z" transform="translate(-326.099 -262.572)"/>
      <path id="Path_16443" data-name="Path 16443" d="M329.342,277.5c-.455.87-1.229,1.575-1.607,2.5a4.151,4.151,0,0,0-.287,1.2,12.087,12.087,0,0,0-.068,1.284v.911a12.08,12.08,0,0,1,.069-1.286,4.146,4.146,0,0,1,.287-1.2,28.647,28.647,0,0,1,1.607-2.5,9.142,9.142,0,0,0,.706-4.5A7.6,7.6,0,0,1,329.342,277.5Z" transform="translate(-322.922 -268.747)"/>
    </g>
    <path id="Path_16444" data-name="Path 16444" d="M343.441,260.376a1.323,1.323,0,0,1-.219.241,2.081,2.081,0,0,1-.533.319c-1.325.574-1.27-1.3-1.962-1.94a2.353,2.353,0,0,0-1.539-.455q-2-.1-4-.178c-2.227-.082-4.448-.123-6.67-.073q-1.6.027-3.187.132a8.679,8.679,0,0,0-3.6.824,3.809,3.809,0,0,0-.961.751c-.25.273-.514.619-.861.683a8.2,8.2,0,0,1,5.614-6.461A11.269,11.269,0,0,1,341,256.155a7.035,7.035,0,0,1,1.885,2.491,8.644,8.644,0,0,1,.551,1.73Z" transform="translate(-212.442 -152.589)" opacity="0.1"/>
    <path id="Path_16445" data-name="Path 16445" d="M342.13,248.161c-1.325.574-1.27-1.3-1.962-1.94a2.354,2.354,0,0,0-1.539-.455,121.372,121.372,0,0,0-13.86-.118c-1.644.109-3.447.355-4.553,1.575-.282.31-.578.71-1,.7-.141-.911-.241-1.858-.31-2.791a3.1,3.1,0,0,1,.055-1.047c.114-.392.373-.724.505-1.106a4.435,4.435,0,0,0,.137-1.493,10.791,10.791,0,0,1,5.309-9.179,4.821,4.821,0,0,0,1.106-.747,3.335,3.335,0,0,1,.378-.382,1.443,1.443,0,0,1,.879-.209h.647a5.877,5.877,0,0,0,1.707-.455,3.725,3.725,0,0,1,1.589-.3,5.282,5.282,0,0,1,1.648.6,3.992,3.992,0,0,0,.77.278c.414.1.842.091,1.257.173a6.133,6.133,0,0,1,1.885.838,8.992,8.992,0,0,1,1.894,1.366,8.382,8.382,0,0,1,1.466,2.386,17.087,17.087,0,0,1,1.366,3.788c.369,1.885.187,3.925,1.061,5.637C343.1,246.344,343.582,247.537,342.13,248.161Z" transform="translate(-211.882 -140.725)" fill="#fed253"/>
    <path id="Path_16446" data-name="Path 16446" d="M319.25,261.367s9.439-8.587,23.494-1.466C342.744,259.9,326.877,256.29,319.25,261.367Z" transform="translate(-212.082 -155.36)" opacity="0.1"/>
    <path id="Path_16447" data-name="Path 16447" d="M89.847,310.755c-1.284-2.1-3.215-4.03-2.914-6.415a18.762,18.762,0,0,0,10.122-1.953,83.628,83.628,0,0,0,9.275-5.35c1.193-.751,2.381-1.489,3.565-2.172,1.876-1.075,3.738-2.277,5.646-3.328a21.309,21.309,0,0,1,8.587-2.969,15.7,15.7,0,0,1,1.671-.041c3.779.073,7.695,1.088,11.019-.606l.2-.109c1.885-1.034,3.256-2.791,4.872-4.216a21.761,21.761,0,0,1,3.775-2.623c2.454-1.366,5.113-2.459,7.622-3.747a11.572,11.572,0,0,0,1.821-1.166l.428-.342.1-.082c.1-.087.209-.173.31-.264l.2-.173.2-.182.155-.146.25-.237.027-.032.4-.392.159-.159.278-.287.164-.164c.278-.287.555-.578.838-.861s.665-.665,1.006-.979h0l.328-.291.1-.082.264-.219.123-.1.26-.2.128-.1c.128-.1.26-.187.392-.278a2.854,2.854,0,0,1,.382-.223l-.851-2.063,2.45-1.011,33.784,81.98-2.454,1.011-19.324-46.9-.137.137a38.793,38.793,0,0,1-15.977,9.507h-.036c-3.365,1.015-7.13,1.735-9.962,3.62a9.561,9.561,0,0,0-2.573,2.463c-.665.947-1.129,2.026-1.821,2.937-.132.168-.278.332-.423.487a15.828,15.828,0,0,1-2.732,2.167l-.433.3a88.547,88.547,0,0,1-9.152,5.641,36.1,36.1,0,0,1-5.687,2.368c-1.425.455-2.9.788-4.321,1.238a16.919,16.919,0,0,0-2.782,1.12,20.358,20.358,0,0,0-6.019,5.345c-1.534,1.849-2.991,3.806-4.676,5.491-1.056,1.047-2.664,2.04-3.938,1.425l-.26-.15c.041-.068.073-.137.109-.209,1.006-2.108-.232-4.713-1.9-6.4-.173-.178-.351-.351-.533-.514s-.51-.455-.769-.683a18.536,18.536,0,0,1-3.929-3.943,12.863,12.863,0,0,1-1.512-4.284c-.455-2.145-.76-4.353-1.926-6.179-.765-1.207-1.9-2.236-2.732-3.392a5.168,5.168,0,0,1-1-2.34c-.187-1.48.5-2.928.76-4.4a5.5,5.5,0,0,0,.1-1.22A6.461,6.461,0,0,0,89.847,310.755Z" transform="translate(-85.526 -160.869)" fill="url(#linear-gradient-2)"/>
    <rect id="Rectangle_6139" data-name="Rectangle 6139" width="2.609" height="87.179" transform="translate(110.542 187.613) rotate(157.6)" fill="#d6d8e1"/>
    <path id="Path_16448" data-name="Path 16448" d="M95.746,329.1c1.143,1.8,1.448,3.966,1.89,6.074a12.794,12.794,0,0,0,1.489,4.216,18.322,18.322,0,0,0,3.861,3.875c.255.223.51.455.756.674.178.159.355.332.524.5,1.639,1.662,2.855,4.225,1.867,6.3a1.734,1.734,0,0,1-.1.2,2.091,2.091,0,0,0,.25.146c1.257.61,2.837-.364,3.875-1.4,1.657-1.657,3.092-3.579,4.6-5.4a19.936,19.936,0,0,1,5.919-5.259,16.39,16.39,0,0,1,2.732-1.1c1.4-.455,2.846-.779,4.248-1.216a35.751,35.751,0,0,0,5.591-2.327,87.663,87.663,0,0,0,9.015-5.55l.428-.291a15.64,15.64,0,0,0,2.686-2.126c.146-.155.287-.314.419-.483.7-.911,1.161-1.953,1.821-2.887a9.4,9.4,0,0,1,2.532-2.422c2.787-1.853,6.484-2.563,9.794-3.561h.036a38.219,38.219,0,0,0,15.708-9.348,2.559,2.559,0,0,0,.788-1.156,2.67,2.67,0,0,0-.537-1.844c-.387-.665-.765-1.33-1.138-2a89.467,89.467,0,0,1-4.489-9.439c-.287-.71-.565-1.416-.833-2.131q-1.034-2.732-1.885-5.541c-.187-.619-.369-1.243-.542-1.867-.032-.118-.068-.246-.1-.382-.756-3.037-1.767-10.144-4.881-8.018a18.019,18.019,0,0,0-2.573,2.236c-.606.615-1.2,1.248-1.821,1.858a18.435,18.435,0,0,1-1.607,1.407,11.8,11.8,0,0,1-1.821,1.147c-2.472,1.266-5.086,2.327-7.494,3.684a21.3,21.3,0,0,0-3.715,2.577c-1.589,1.4-2.937,3.133-4.79,4.148l-.2.109c-3.269,1.662-7.117.665-10.836.592a16.337,16.337,0,0,0-1.639.041,20.751,20.751,0,0,0-8.446,2.919c-1.876,1.038-3.706,2.213-5.55,3.274-1.166.669-2.331,1.393-3.506,2.135a80.21,80.21,0,0,1-9.106,5.263A18.712,18.712,0,0,1,89,308.649c-.3,2.345,1.6,4.239,2.864,6.306a6.261,6.261,0,0,1,1.07,2.991,5.286,5.286,0,0,1-.087,1.2c-.255,1.452-.911,2.873-.747,4.335a5.031,5.031,0,0,0,.979,2.29C93.875,326.9,94.99,327.918,95.746,329.1Z" transform="translate(-86.654 -165.097)" fill="#f26a12"/>
    <path id="Path_16449" data-name="Path 16449" d="M307.013,414.71a39.686,39.686,0,0,0,8.032,5.332c4.043,1.853,1.366,8.5,1.366,8.5a7.331,7.331,0,0,1-7.285-3.187C306.125,421.185,307.013,414.71,307.013,414.71Z" transform="translate(-205.35 -241.221)" fill="#fce4ec"/>
    <path id="Path_16450" data-name="Path 16450" d="M742.662,544.664s-10.563,13.9-19.328,14.015-13.91,5.855-9.748,9.443,49.511-2.049,49.511-2.049.428-17.083-3.5-19.579S742.662,544.664,742.662,544.664Z" transform="translate(-426.072 -311.961)" fill="#444176"/>
    <path id="Path_16451" data-name="Path 16451" d="M1023.322,577.39s1.616,11.01-3.378,18.518,9.024,10.4,9.024,10.4,10.185,2.837,10.928-7.226.5-17.757-.455-18.577-1.753-6.479-1.753-6.479Z" transform="translate(-593.153 -328)" fill="#444176"/>
    <path id="Path_16452" data-name="Path 16452" d="M677.45,486.617s-.369-35.61,34.868-50.085l8.182-15.567,3.925-9.562a23.267,23.267,0,0,1,16.432-13.869l6.347-1.425,1.962-8.269a23.257,23.257,0,0,1,18.581-17.548,65.066,65.066,0,0,1,11.7-1.093,10.072,10.072,0,0,1,8.555,5.008h0s33.384-.369,34.863,17.807c0,0,3.342,16.687,8.164,19.656,0,0,8.159-1.853,16.319,10.017l8.9,30.415s23.367,21.882,16.319,41.889c0,0-9.644,13.723-58.6,4.448,0,0-52.3,15.936-80.136-5.919C733.827,492.55,687.467,501.451,677.45,486.617Z" transform="translate(-407.188 -216.432)" fill="#a8a8a8"/>
    <path id="Path_16453" data-name="Path 16453" d="M728.77,563.055s7.422-10.386,7.048-17.807,1.748-25.5,1.748-25.5" transform="translate(-435.141 -298.435)" fill="none" stroke="#000" stroke-miterlimit="10" stroke-width="1" opacity="0.1"/>
    <path id="Path_16454" data-name="Path 16454" d="M788.24,512.859s7.417-13.723,6.675-21.14c0,0,7.79-14.115,13.723-12.986" transform="translate(-467.534 -276.058)" fill="none" stroke="#000" stroke-miterlimit="10" stroke-width="1" opacity="0.1"/>
    <path id="Path_16455" data-name="Path 16455" d="M877.85,452.25s20.4-7.417,21.514-13.35" transform="translate(-516.343 -254.397)" fill="none" stroke="#000" stroke-miterlimit="10" stroke-width="1" opacity="0.1"/>
    <path id="Path_16456" data-name="Path 16456" d="M894.14,491.053s21.514-9.644,21.514-12.243H926.4s15.581,20.4,13.728,29.3" transform="translate(-525.216 -276.135)" fill="none" stroke="#000" stroke-miterlimit="10" stroke-width="1" opacity="0.1"/>
    <path id="Path_16457" data-name="Path 16457" d="M868.774,538.083S848,536.6,840.581,542.536s-20.771,8.9-20.771,8.9-7.791,16.692-10.759,19.656-7.79,13.354-7.79,13.354" transform="translate(-474.626 -308.33)" fill="none" stroke="#000" stroke-miterlimit="10" stroke-width="1" opacity="0.1"/>
    <path id="Path_16458" data-name="Path 16458" d="M949.54,581.46s2.222,7.786,5.191,12.239,7.417,20.4,7.417,20.4" transform="translate(-555.391 -332.047)" fill="none" stroke="#000" stroke-miterlimit="10" stroke-width="1" opacity="0.1"/>
    <path id="Path_16459" data-name="Path 16459" d="M1026.11,631.15s4.708,13.1,8.847,13.227" transform="translate(-597.098 -359.112)" fill="none" stroke="#000" stroke-miterlimit="10" stroke-width="1" opacity="0.1"/>
    <path id="Path_16460" data-name="Path 16460" d="M958.38,507.66s12.23,3.306,17.343,11.315,20.73,15.271,20.73,15.271" transform="translate(-560.206 -291.849)" fill="none" stroke="#000" stroke-miterlimit="10" stroke-width="1" opacity="0.1"/>
    <path id="Path_16461" data-name="Path 16461" d="M969.9,421s0,17.061,4.822,17.061,15.581,1.853,15.581,1.853" transform="translate(-566.481 -244.647)" fill="none" stroke="#000" stroke-miterlimit="10" stroke-width="1" opacity="0.1"/>
    <path id="Path_16462" data-name="Path 16462" d="M908.98,376.5s-1.234,29.473-7.54,37.1" transform="translate(-529.192 -220.409)" fill="none" stroke="#000" stroke-miterlimit="10" stroke-width="1" opacity="0.1"/>
    <g id="Group_9412" data-name="Group 9412" transform="translate(293.975 152.412)" opacity="0.05">
      <path id="Path_16463" data-name="Path 16463" d="M970.83,451.324l-8.9-30.415c-8.159-11.87-16.319-10.017-16.319-10.017-4.822-2.969-8.159-19.661-8.159-19.661-1.484-18.176-34.868-17.8-34.868-17.8h0a10.072,10.072,0,0,0-8.574-5.009c-1.575,0-3.187.05-4.8.182q1.366.137,2.618.387l2.6,4.453s33.379-.373,34.864,17.8c0,0,3.342,16.692,8.164,19.661,0,0,8.159-1.858,16.318,10.017l8.9,30.415s23.367,21.882,16.318,41.889c0,0-4.758,6.771-24.55,7.59,26.686.979,32.71-7.59,32.71-7.59C994.2,473.206,970.83,451.324,970.83,451.324Z" transform="translate(-816.505 -368.42)"/>
      <path id="Path_16464" data-name="Path 16464" d="M753.293,639.29a173.191,173.191,0,0,1-23.763,2.6,151.542,151.542,0,0,0,25.188-1.507C754.235,640.014,753.762,639.659,753.293,639.29Z" transform="translate(-729.53 -515.959)"/>
      <path id="Path_16465" data-name="Path 16465" d="M915.783,652.33a152.333,152.333,0,0,1-35.023,5.537c17.1.619,33.293-2.946,39.968-4.658C919.116,652.94,917.481,652.635,915.783,652.33Z" transform="translate(-811.903 -523.061)"/>
    </g>
    <path id="Path_16466" data-name="Path 16466" d="M306.73,772.794s10.2-.314,13.277-2.5,15.69-4.8,16.455-1.293,15.33,17.461,3.811,17.557-26.759-1.794-29.828-3.665S306.73,772.794,306.73,772.794Z" transform="translate(-205.263 -433.261)" fill="#a8a8a8"/>
    <path id="Path_16467" data-name="Path 16467" d="M340.483,791.93c-11.52.1-26.763-1.794-29.832-3.642-2.336-1.425-3.269-6.534-3.579-8.888h-.342s.647,8.228,3.715,10.094,18.313,3.756,29.828,3.665c3.328-.027,4.476-1.211,4.412-2.964C344.225,791.252,342.955,791.912,340.483,791.93Z" transform="translate(-205.263 -439.862)" opacity="0.2"/>
    <path id="Path_16468" data-name="Path 16468" d="M796.646,709.071s-12.016-2.4-15.217-5.609-17.621-8.806-19.223-4.8-21.623,17.621-8.009,20.034,32.036,3.187,36.043,1.6S796.646,709.071,796.646,709.071Z" transform="translate(-446.421 -395.127)" fill="#a8a8a8"/>
    <path id="Path_16469" data-name="Path 16469" d="M754.2,731.179c13.619,2.4,32.036,3.187,36.043,1.6,3.046-1.22,5.168-7.08,6.005-9.807l.4.086s-2.4,9.607-6.406,11.21-22.424.8-36.043-1.6c-3.929-.692-5.054-2.322-4.63-4.38C749.906,729.64,751.277,730.674,754.2,731.179Z" transform="translate(-446.425 -409.125)" opacity="0.2"/>
    <path id="Path_16470" data-name="Path 16470" d="M565.482,143.737h-2.859a2,2,0,1,0,0-4.007H539.456a2,2,0,1,0,0,4.007h2.859a2,2,0,0,0,0,4h-4a2,2,0,0,0,0,4.007H561.48a2,2,0,0,0,0-4.007h4a2,2,0,1,0,0-4Z" transform="translate(-330.311 -91.444)" fill="#1a237e" opacity="0.1"/>
    <path id="Path_16471" data-name="Path 16471" d="M763.075,298.549h-2.859a2,2,0,0,0,0-4H737.026a2,2,0,1,0,0,4h2.859a2,2,0,0,0,0,4h-4a2,2,0,0,0,0,4.007h23.162a2,2,0,0,0,0-4.007h4.029a2,2,0,1,0,0-4Z" transform="translate(-437.925 -175.769)" fill="#1a237e" opacity="0.1"/>
    <path id="Path_16472" data-name="Path 16472" d="M470.261,269.909H467.4a2,2,0,1,0,0-4H444.231a2,2,0,1,0,0,4h2.859a2,2,0,1,0,0,4h-4.007a2,2,0,1,0,0,4.007H466.25a2,2,0,1,0,0-4.007h4a2,2,0,1,0,0-4Z" transform="translate(-278.441 -160.169)" fill="#1a237e" opacity="0.1"/>
  </g>
</svg>
