<svg xmlns="http://www.w3.org/2000/svg" xmlns:xlink="http://www.w3.org/1999/xlink" width="465.999" height="403.227" viewBox="0 0 465.999 403.227">
  <defs>
    <linearGradient id="linear-gradient" x1="0.5" y1="1" x2="0.5" gradientUnits="objectBoundingBox">
      <stop offset="0" stop-color="gray" stop-opacity="0.251"/>
      <stop offset="0.54" stop-color="gray" stop-opacity="0.122"/>
      <stop offset="1" stop-color="gray" stop-opacity="0.102"/>
    </linearGradient>
    <linearGradient id="linear-gradient-2" x1="-0.512" y1="7.758" x2="-0.512" y2="6.717" xlink:href="#linear-gradient"/>
    <linearGradient id="linear-gradient-3" x1="-1.386" y1="7.85" x2="-1.386" y2="6.809" xlink:href="#linear-gradient"/>
  </defs>
  <g id="Group_9422" data-name="Group 9422" transform="translate(0 -0.001)">
    <g id="Group_9414" data-name="Group 9414" transform="translate(158.406 10.458)" opacity="0.8">
      <ellipse id="Ellipse_360" data-name="Ellipse 360" cx="81.25" cy="62.943" rx="81.25" ry="62.943" fill="url(#linear-gradient)"/>
    </g>
    <path id="Path_16489" data-name="Path 16489" d="M79.447,0c43.878,0,79.447,27.555,79.447,61.545s-35.57,61.545-79.447,61.545S0,95.536,0,61.545,35.57,0,79.447,0Z" transform="translate(160.209 11.856)" fill="#303f9f"/>
    <path id="Path_16474" data-name="Path 16474" d="M481.793,176.205c0-33.99,35.566-61.545,79.442-61.545a97.383,97.383,0,0,1,39.588,8.172C586.859,113.4,568.591,107.67,548.6,107.67c-43.876,0-79.447,27.555-79.447,61.545,0,22.823,16.038,42.744,39.865,53.374C492.333,211.3,481.793,194.712,481.793,176.205Z" transform="translate(-308.741 -95.964)" fill="#fff" opacity="0.1"/>
    <path id="Path_16475" data-name="Path 16475" d="M290.628,176.9,378.7,329.448l88.074,152.543H114.48l88.074-152.543Z" transform="translate(-50.971 -78.762)" fill="#303f9f" opacity="0.2"/>
    <g id="Group_9415" data-name="Group 9415" transform="translate(189.22 248.146)" opacity="0.3">
      <path id="Path_16476" data-name="Path 16476" d="M592.419,599.843l6.84-20.3a34.761,34.761,0,0,0-12.87-39.327l.055-.033a34.107,34.107,0,0,0-8.76-4.438h0l-.094-.033-.105-.033h0a34.148,34.148,0,0,0-9.376-1.764,32.875,32.875,0,0,0-3.39,0,34.589,34.589,0,0,0-5.819.8c-.555.122-1.109.261-1.614.411s-1.071.311-1.6.483c-1.054.349-2.091.743-3.107,1.193-.51.222-1.015.455-1.509.7a34.089,34.089,0,0,0-4.3,2.53c-.461.316-.91.643-1.354.976a34.4,34.4,0,0,0-11.783,16.421l-10.751,31.982a34.318,34.318,0,0,0-1.487,15.6c.111.8.25,1.6.411,2.4s.361,1.576.555,2.352c.15.516.305,1.032.477,1.542.255.76.555,1.52.838,2.263.205.494.422.988.649,1.476.449.971.949,1.919,1.487,2.846a30.019,30.019,0,0,0,1.753,2.707c.466.655.96,1.3,1.47,1.919a28.985,28.985,0,0,0,2.175,2.4,34.291,34.291,0,0,0,11.65,7.706h0l.189.078a11.992,11.992,0,0,1,.777-1.2c1.664-2.28,4.56-3.883,7.317-3.284.2.044.4.105.6.166,1.4.494,2.774,1.376,4.122,1.809a3.7,3.7,0,0,0,3.112-.039c2.7-1.437,1.7-5.969,4.011-7.955a3.61,3.61,0,0,1,.338-.255,1.038,1.038,0,0,1-.089-.128c1.786-1.11,4.261-.372,6.319.344,2.219.782,5.115,1.309,6.657-.5,1.043-1.243.965-3.134,1.958-4.438,1.154-1.5,3.329-1.664,5.209-1.4l.094.028c3.606,1.487,7.545-.982,7.267-4.871A30.381,30.381,0,0,1,592.419,599.843Z" transform="translate(-521.084 -533.871)" fill="url(#linear-gradient-2)"/>
    </g>
    <path id="Path_16477" data-name="Path 16477" d="M545.7,631.287c1.62-2.219,4.4-3.772,7.062-3.168s5.187,3.14,7.556,1.87c3.24-1.731.943-8.094,6.2-8.566a6.9,6.9,0,0,1,3.2.555c2.219.9,5.692,1.925,7.4-.111,1-1.2.932-3.023,1.892-4.266,1.11-1.442,3.223-1.625,5.026-1.348l.089.028c3.478,1.437,7.284-.949,7.012-4.7a29.015,29.015,0,0,1,1.581-10.718l6.591-19.589a33.5,33.5,0,0,0-21-42.323h0a33.5,33.5,0,0,0-42.312,21l-10.391,30.806a33.5,33.5,0,0,0,19.317,41.69A11.9,11.9,0,0,1,545.7,631.287Z" transform="translate(-333.112 -287.218)" fill="#fff"/>
    <circle id="Ellipse_362" data-name="Ellipse 362" cx="3.611" cy="3.611" r="3.611" transform="translate(221.261 266.047)" opacity="0.2"/>
    <circle id="Ellipse_363" data-name="Ellipse 363" cx="3.611" cy="3.611" r="3.611" transform="translate(241.798 272.954)" opacity="0.2"/>
    <ellipse id="Ellipse_364" data-name="Ellipse 364" cx="5.414" cy="3.611" rx="5.414" ry="3.611" transform="matrix(0.319, -0.948, 0.948, 0.319, 225.399, 290.818)" fill="#e0e0e0"/>
    <circle id="Ellipse_365" data-name="Ellipse 365" cx="5.414" cy="5.414" r="5.414" transform="translate(301.108 265.043)" fill="#fff"/>
    <circle id="Ellipse_366" data-name="Ellipse 366" cx="2.707" cy="2.707" r="2.707" transform="translate(320.968 259.235)" fill="#fff"/>
    <g id="Group_9417" data-name="Group 9417" transform="translate(196.432 30.125)" opacity="0.5">
      <g id="Group_9416" data-name="Group 9416" opacity="0.3">
        <path id="Path_16478" data-name="Path 16478" d="M605.419,206.843l6.84-20.3a34.761,34.761,0,0,0-12.87-39.327l.055-.033a34.1,34.1,0,0,0-8.76-4.438h0l-.094-.033-.105-.033h0a34.146,34.146,0,0,0-9.375-1.764,32.892,32.892,0,0,0-3.39,0,34.573,34.573,0,0,0-5.819.8c-.555.122-1.11.261-1.614.411s-1.071.311-1.6.483c-1.054.35-2.091.743-3.107,1.193-.51.222-1.015.455-1.509.7a34.109,34.109,0,0,0-4.3,2.53c-.46.316-.91.644-1.354.976a34.4,34.4,0,0,0-11.783,16.421l-10.751,31.982a34.317,34.317,0,0,0-1.487,15.6c.111.8.25,1.6.411,2.4s.361,1.576.555,2.352c.15.516.305,1.032.477,1.542.255.76.555,1.52.838,2.263.205.494.422.987.649,1.476.449.971.949,1.919,1.487,2.846a30.044,30.044,0,0,0,1.753,2.707c.466.655.96,1.3,1.47,1.919.688.832,1.409,1.637,2.175,2.4a34.29,34.29,0,0,0,11.65,7.706h0l.189.078a11.977,11.977,0,0,1,.777-1.2c1.664-2.28,4.56-3.883,7.317-3.284.2.044.4.105.6.166,1.4.494,2.774,1.376,4.122,1.809a3.7,3.7,0,0,0,3.112-.039c2.7-1.437,1.7-5.969,4.011-7.955a3.609,3.609,0,0,1,.338-.255,1.055,1.055,0,0,1-.089-.128c1.786-1.11,4.261-.372,6.319.344,2.219.782,5.115,1.309,6.657-.5,1.043-1.243.965-3.134,1.958-4.438,1.154-1.5,3.329-1.664,5.209-1.4h.094c3.606,1.487,7.545-.982,7.267-4.871A30.316,30.316,0,0,1,605.419,206.843Z" transform="translate(-534.084 -140.871)" fill="url(#linear-gradient-3)"/>
      </g>
      <path id="Path_16479" data-name="Path 16479" d="M558.7,238.287c1.62-2.219,4.4-3.772,7.062-3.168s5.187,3.14,7.556,1.87c3.24-1.731.943-8.094,6.2-8.566a6.9,6.9,0,0,1,3.2.555c2.219.9,5.692,1.925,7.4-.111,1-1.2.932-3.023,1.892-4.266,1.11-1.442,3.223-1.625,5.026-1.348l.089.028c3.478,1.437,7.284-.949,7.012-4.7a29.014,29.014,0,0,1,1.581-10.718l6.591-19.589a33.5,33.5,0,0,0-21-42.323h0a33.5,33.5,0,0,0-42.312,21l-10.391,30.806a33.5,33.5,0,0,0,19.317,41.69,11.891,11.891,0,0,1,.771-1.165Z" transform="translate(-535.333 -142.364)" fill="#fff"/>
      <circle id="Ellipse_367" data-name="Ellipse 367" cx="3.611" cy="3.611" r="3.611" transform="translate(32.041 17.901)" opacity="0.2"/>
      <circle id="Ellipse_368" data-name="Ellipse 368" cx="3.611" cy="3.611" r="3.611" transform="translate(52.578 24.808)" opacity="0.2"/>
    </g>
    <path id="Path_16480" data-name="Path 16480" d="M625.957,186a48.554,48.554,0,0,1,1.548,12.2c0,33.99-35.566,61.545-79.442,61.545-35.91-.022-66.25-18.474-76.063-43.793,7.29,28.165,39.388,49.374,77.894,49.374,43.876,0,79.447-27.555,79.447-61.545A48.906,48.906,0,0,0,625.957,186Z" transform="translate(-310.01 -130.839)" opacity="0.1"/>
    <g id="Group_9418" data-name="Group 9418" transform="translate(75.348 57.291)" opacity="0.8">
      <ellipse id="Ellipse_369" data-name="Ellipse 369" cx="164.309" cy="42.944" rx="164.309" ry="42.944" fill="url(#linear-gradient)"/>
    </g>
    <path id="Path_16481" data-name="Path 16481" d="M484.475,192.4c-87.752,0-158.895,18.59-158.895,41.529H643.37C643.37,210.99,572.227,192.4,484.475,192.4Z" transform="translate(-244.818 -133.689)" fill="#fff"/>
    <path id="Path_16482" data-name="Path 16482" d="M484.475,308.784c87.752,0,158.895-18.59,158.895-41.524H325.58C325.58,290.194,396.723,308.784,484.475,308.784Z" transform="translate(-244.818 -167.02)" fill="#fff"/>
    <path id="Path_16483" data-name="Path 16483" d="M484.475,308.784c87.752,0,158.895-18.59,158.895-41.524H325.58C325.58,290.194,396.723,308.784,484.475,308.784Z" transform="translate(-244.818 -167.02)" opacity="0.05"/>
    <rect id="Rectangle_6140" data-name="Rectangle 6140" width="151.672" height="21.669" rx="10.834" transform="translate(163.821 89.4)" opacity="0.05"/>
    <path id="Path_16484" data-name="Path 16484" d="M308.419,141.349a2.042,2.042,0,0,1-1.137-2.463,1.031,1.031,0,0,0,.044-.227h0a1.021,1.021,0,0,0-1.836-.677h0a1.011,1.011,0,0,0-.111.2,2.036,2.036,0,0,1-2.463,1.137,1.108,1.108,0,0,0-.227-.044h0a1.021,1.021,0,0,0-.677,1.836h0a.9.9,0,0,0,.2.116,2.042,2.042,0,0,1,1.137,2.463,1.044,1.044,0,0,0-.044.222h0a1.021,1.021,0,0,0,1.836.682h0a.915.915,0,0,0,.111-.205,2.036,2.036,0,0,1,2.463-1.11,1.108,1.108,0,0,0,.227.044h0a1.021,1.021,0,0,0,.677-1.836h0A.9.9,0,0,0,308.419,141.349Z" transform="translate(-234.142 -109.277)" fill="#4d8af0" opacity="0.5"/>
    <path id="Path_16485" data-name="Path 16485" d="M817.441,447.349a2.042,2.042,0,0,1-1.109-2.463,1.039,1.039,0,0,0,.044-.227h0a1.021,1.021,0,0,0-1.836-.677h0a1.014,1.014,0,0,0-.111.2,2.036,2.036,0,0,1-2.463,1.137,1.105,1.105,0,0,0-.227-.044h0a1.021,1.021,0,0,0-.677,1.836h0a.9.9,0,0,0,.2.117,2.042,2.042,0,0,1,1.109,2.463,1.054,1.054,0,0,0-.044.222h0a1.021,1.021,0,0,0,1.836.682h0a.915.915,0,0,0,.111-.205,2.036,2.036,0,0,1,2.463-1.109,1.109,1.109,0,0,0,.227.044h0a1.021,1.021,0,0,0,.677-1.836h0a.9.9,0,0,0-.2-.139Z" transform="translate(-460.791 -245.52)" fill="#4d8af0" opacity="0.5"/>
    <path id="Path_16486" data-name="Path 16486" d="M255.419,589.349a2.041,2.041,0,0,1-1.137-2.463,1.032,1.032,0,0,0,.044-.227h0a1.021,1.021,0,0,0-1.836-.677h0a1.008,1.008,0,0,0-.111.2,2.036,2.036,0,0,1-2.463,1.137,1.107,1.107,0,0,0-.227-.044h0a1.021,1.021,0,0,0-.677,1.836h0a.9.9,0,0,0,.2.117,2.041,2.041,0,0,1,1.137,2.463,1.052,1.052,0,0,0-.044.222h0a1.021,1.021,0,0,0,1.836.682h0a.915.915,0,0,0,.111-.205,2.036,2.036,0,0,1,2.463-1.11,1.119,1.119,0,0,0,.227.044h0a1.021,1.021,0,0,0,.677-1.836h0A.9.9,0,0,0,255.419,589.349Z" transform="translate(-210.544 -308.744)" fill="#4d8af0" opacity="0.5"/>
    <path id="Path_16487" data-name="Path 16487" d="M200.441,258.349a2.042,2.042,0,0,1-1.11-2.463,1.031,1.031,0,0,0,.044-.227h0a1.021,1.021,0,0,0-1.836-.677h0a1.009,1.009,0,0,0-.111.2,2.036,2.036,0,0,1-2.463,1.137,1.11,1.11,0,0,0-.227-.044h0a1.021,1.021,0,0,0-.677,1.836h0a.9.9,0,0,0,.2.116,2.042,2.042,0,0,1,1.137,2.463,1.048,1.048,0,0,0-.044.222h0a1.021,1.021,0,0,0,1.836.682h0a.915.915,0,0,0,.111-.205,2.036,2.036,0,0,1,2.463-1.11,1.11,1.11,0,0,0,.227.044h0a1.021,1.021,0,0,0,.677-1.836h0A.9.9,0,0,0,200.441,258.349Z" transform="translate(-186.078 -161.37)" fill="#4d8af0" opacity="0.5"/>
    <path id="Path_16488" data-name="Path 16488" d="M807.325,90.349a2.042,2.042,0,0,1-1.11-2.463,1.031,1.031,0,0,0,.044-.227h0a1.021,1.021,0,0,0-1.836-.677h0a1.011,1.011,0,0,0-.111.2,2.036,2.036,0,0,1-2.463,1.11,1.107,1.107,0,0,0-.227-.044h0a1.021,1.021,0,0,0-.7,1.892h0a.9.9,0,0,0,.2.117,2.041,2.041,0,0,1,1.109,2.463,1.046,1.046,0,0,0-.044.222h0a1.021,1.021,0,0,0,1.875.655h0a.912.912,0,0,0,.111-.205,2.036,2.036,0,0,1,2.463-1.11,1.11,1.11,0,0,0,.227.044h0a1.021,1.021,0,0,0,.677-1.836h0a.9.9,0,0,0-.211-.139Z" transform="translate(-456.223 -86.57)" fill="#4d8af0" opacity="0.5"/>
    <g id="Group_9419" data-name="Group 9419" transform="translate(57.14 143.046)" opacity="0.5">
      <rect id="Rectangle_6141" data-name="Rectangle 6141" width="1.664" height="9.431" transform="translate(3.883)" fill="#47e6b1"/>
      <rect id="Rectangle_6142" data-name="Rectangle 6142" width="1.664" height="9.431" transform="translate(9.431 3.883) rotate(90)" fill="#47e6b1"/>
    </g>
    <g id="Group_9420" data-name="Group 9420" transform="translate(456.568 98.665)" opacity="0.5">
      <rect id="Rectangle_6143" data-name="Rectangle 6143" width="1.664" height="9.431" transform="translate(3.883)" fill="#47e6b1"/>
      <rect id="Rectangle_6144" data-name="Rectangle 6144" width="1.664" height="9.431" transform="translate(9.431 3.883) rotate(90)" fill="#47e6b1"/>
    </g>
    <g id="Group_9421" data-name="Group 9421" transform="translate(401.092 253.443)" opacity="0.5">
      <rect id="Rectangle_6145" data-name="Rectangle 6145" width="1.664" height="9.431" transform="translate(3.883)" fill="#47e6b1"/>
      <rect id="Rectangle_6146" data-name="Rectangle 6146" width="1.664" height="9.431" transform="translate(9.431 3.883) rotate(90)" fill="#47e6b1"/>
    </g>
    <circle id="Ellipse_370" data-name="Ellipse 370" cx="3.329" cy="3.329" r="3.329" transform="translate(397.764 42.079)" fill="#f55f44" opacity="0.5"/>
    <circle id="Ellipse_371" data-name="Ellipse 371" cx="3.329" cy="3.329" r="3.329" transform="translate(0 3.801)" fill="#f55f44" opacity="0.5"/>
    <circle id="Ellipse_372" data-name="Ellipse 372" cx="3.329" cy="3.329" r="3.329" transform="translate(99.857 195.193)" fill="#f55f44" opacity="0.5"/>
    <ellipse id="Ellipse_373" data-name="Ellipse 373" cx="18.862" cy="3.883" rx="18.862" ry="3.883" transform="translate(110.952 81.789)" opacity="0.05"/>
    <ellipse id="Ellipse_374" data-name="Ellipse 374" cx="18.862" cy="3.883" rx="18.862" ry="3.883" transform="translate(110.952 111.191)" opacity="0.05"/>
    <ellipse id="Ellipse_375" data-name="Ellipse 375" cx="18.862" cy="3.883" rx="18.862" ry="3.883" transform="translate(325.645 81.789)" opacity="0.05"/>
    <ellipse id="Ellipse_376" data-name="Ellipse 376" cx="18.862" cy="3.883" rx="18.862" ry="3.883" transform="translate(325.645 111.191)" opacity="0.05"/>
    <ellipse id="Ellipse_377" data-name="Ellipse 377" cx="18.862" cy="3.883" rx="18.862" ry="3.883" transform="translate(220.795 65.146)" opacity="0.05"/>
    <ellipse id="Ellipse_378" data-name="Ellipse 378" cx="18.862" cy="3.883" rx="18.862" ry="3.883" transform="translate(234.664 24.649)" opacity="0.05"/>
    <ellipse id="Ellipse_379" data-name="Ellipse 379" cx="18.862" cy="3.883" rx="18.862" ry="3.883" transform="translate(198.605 41.292)" opacity="0.05"/>
    <ellipse id="Ellipse_380" data-name="Ellipse 380" cx="18.862" cy="3.883" rx="18.862" ry="3.883" transform="translate(267.95 48.503)" opacity="0.05"/>
    <ellipse id="Ellipse_381" data-name="Ellipse 381" cx="18.862" cy="3.883" rx="18.862" ry="3.883" transform="translate(220.795 122.841)" opacity="0.05"/>
  </g>
</svg>
