<svg xmlns="http://www.w3.org/2000/svg" id="prefix__Icon_star" width="24" height="22.667" viewBox="0 0 24 22.667">
    <path id="prefix__Path" fill="#fab428" d="M10.633 19.8a2.667 2.667 0 0 1 2.732 0l4.455 2.662a1.4 1.4 0 0 0 2.089-1.5L18.74 16a2.667 2.667 0 0 1 .861-2.638l3.913-3.35a1.38 1.38 0 0 0-.8-2.425l-5.177-.434a2.667 2.667 0 0 1-2.228-1.603L13.29.842a1.409 1.409 0 0 0-2.58 0l-2.018 4.7a2.667 2.667 0 0 1-2.227 1.6l-5.178.434A1.38 1.38 0 0 0 .487 10L4.4 13.353a2.667 2.667 0 0 1 .86 2.637l-1.17 4.96a1.4 1.4 0 0 0 2.09 1.5z"/>
</svg>
